<svg width="512" height="512" viewBox="0 0 512 512" fill="none" xmlns="http://www.w3.org/2000/svg">
<path d="M187.07 308.699C186.94 308.059 186.75 307.429 186.5 306.829C186.25 306.219 185.94 305.639 185.58 305.099C185.21 304.549 184.79 304.039 184.33 303.579C182.01 301.259 178.56 300.189 175.31 300.849C174.67 300.979 174.04 301.169 173.44 301.419C172.83 301.669 172.25 301.979 171.71 302.339C171.16 302.699 170.65 303.119 170.19 303.579C169.73 304.039 169.31 304.549 168.95 305.099C168.59 305.639 168.28 306.219 168.03 306.829C167.78 307.429 167.59 308.059 167.46 308.699C167.33 309.339 167.26 309.999 167.26 310.649C167.26 311.299 167.33 311.959 167.46 312.609C167.59 313.239 167.78 313.869 168.03 314.479C168.28 315.079 168.59 315.659 168.95 316.199C169.31 316.749 169.73 317.259 170.19 317.719C170.65 318.179 171.16 318.599 171.71 318.969C172.25 319.329 172.83 319.639 173.44 319.889C174.04 320.139 174.67 320.329 175.31 320.459C175.95 320.589 176.61 320.649 177.26 320.649C179.89 320.649 182.47 319.579 184.33 317.719C184.79 317.259 185.21 316.749 185.58 316.199C185.94 315.659 186.25 315.079 186.5 314.479C186.75 313.869 186.94 313.239 187.07 312.609C187.2 311.959 187.26 311.299 187.26 310.649C187.26 309.999 187.2 309.339 187.07 308.699Z" fill="#FBB8C8"/>
<path d="M502 481.385H481.286V374.44V330.586C481.286 314.08 467.858 300.652 451.352 300.652H434.275V240.15V202.012C434.275 185.507 420.847 172.078 404.341 172.078H373.643V143.044C380.503 141.312 386.997 137.775 392.353 132.419C404.664 120.109 407.758 101.35 400.052 85.7368L372.61 30.1418C370.925 26.7288 367.449 24.5678 363.643 24.5678C359.837 24.5678 356.361 26.7288 354.676 30.1418L327.234 85.7378C319.528 101.349 322.622 120.109 334.933 132.42C340.289 137.776 346.783 141.313 353.643 143.045V172.079H266V129.091C272.86 127.359 279.354 123.822 284.71 118.466C297.021 106.156 300.114 87.3968 292.409 71.7838L264.967 16.1878C263.282 12.7748 259.806 10.6138 256 10.6138C252.194 10.6138 248.718 12.7748 247.033 16.1878L219.591 71.7848C211.886 87.3968 214.98 106.156 227.29 118.466C232.646 123.822 239.14 127.359 246 129.091V172.079H158.357V143.076C165.377 141.306 171.815 137.672 177.067 132.42C189.378 120.11 192.472 101.35 184.766 85.7378L157.324 30.1418C155.639 26.7288 152.163 24.5678 148.357 24.5678C144.551 24.5678 141.075 26.7288 139.39 30.1418L111.948 85.7388C104.243 101.35 107.337 120.11 119.647 132.421C124.899 137.673 131.337 141.307 138.357 143.077V172.08H107.659C91.153 172.08 77.725 185.508 77.725 202.014V240.154V300.654H60.648C44.142 300.654 30.714 314.082 30.714 330.588V374.442V481.387H10C4.477 481.387 0 485.864 0 491.387C0 496.91 4.477 501.387 10 501.387H40.714H471.286H502C507.523 501.387 512 496.91 512 491.387C512 485.864 507.523 481.385 502 481.385ZM349.075 118.276C342.828 112.03 341.259 102.511 345.169 94.5888L363.644 57.1598L382.119 94.5888C386.029 102.511 384.459 112.03 378.213 118.276C376.826 119.663 375.281 120.794 373.645 121.702C367.444 125.144 359.846 125.144 353.645 121.702C352.007 120.795 350.462 119.664 349.075 118.276ZM241.432 104.323C235.186 98.0768 233.616 88.5578 237.526 80.6358L256 43.2078L274.475 80.6368C278.385 88.5588 276.815 98.0778 270.569 104.324C269.182 105.711 267.637 106.842 266.001 107.75C259.801 111.192 252.202 111.192 246.001 107.75C244.364 106.841 242.819 105.711 241.432 104.323ZM133.789 118.276C127.542 112.03 125.973 102.511 129.883 94.5888L148.358 57.1598L166.833 94.5888C170.743 102.51 169.173 112.029 162.927 118.276C161.54 119.663 159.995 120.794 158.359 121.702C152.159 125.144 144.56 125.144 138.359 121.702C136.721 120.795 135.176 119.664 133.789 118.276ZM107.659 192.078H404.342C409.82 192.078 414.276 196.534 414.276 202.012V233.408C409.87 234.792 405.123 235.429 399.521 235.429C384.607 235.429 377.801 230.892 369.185 225.148C359.594 218.754 348.724 211.508 327.755 211.508C306.787 211.508 295.917 218.754 286.327 225.148C277.711 230.892 270.906 235.429 255.993 235.429C241.08 235.429 234.275 230.892 225.66 225.148C216.07 218.755 205.201 211.508 184.233 211.508C163.266 211.508 152.397 218.755 142.807 225.148C134.192 230.892 127.387 235.429 112.476 235.429C106.876 235.429 102.131 234.791 97.726 233.409V202.012C97.726 196.534 102.182 192.078 107.659 192.078ZM461.286 481.385H256H50.714V385.276C59.216 386.84 64.632 390.444 71.047 394.721C80.637 401.115 91.506 408.361 112.475 408.361C133.442 408.361 144.311 401.114 153.901 394.721C162.516 388.977 169.321 384.44 184.232 384.44C199.144 384.44 205.95 388.977 214.565 394.721C224.155 401.115 235.024 408.361 255.992 408.361C276.961 408.361 287.83 401.114 297.42 394.721C306.036 388.977 312.841 384.44 327.754 384.44C342.668 384.44 349.474 388.977 358.09 394.721C367.681 401.114 378.55 408.361 399.52 408.361C420.489 408.361 431.359 401.114 440.95 394.721C447.366 390.444 452.783 386.839 461.286 385.275V481.385ZM461.286 365.045C446.603 366.915 437.791 372.789 429.856 378.079C421.24 383.823 414.434 388.36 399.52 388.36C384.606 388.36 377.801 383.823 369.184 378.079C359.593 371.686 348.723 364.439 327.754 364.439C306.786 364.439 295.916 371.686 286.326 378.079C277.71 383.823 270.905 388.36 255.992 388.36C241.079 388.36 234.274 383.823 225.659 378.079C216.069 371.685 205.2 364.439 184.231 364.439C163.264 364.439 152.395 371.686 142.805 378.079C134.19 383.823 127.385 388.36 112.474 388.36C97.561 388.36 90.756 383.823 82.141 378.079C74.206 372.789 65.396 366.915 50.714 365.045V330.585C50.714 325.107 55.171 320.651 60.648 320.651H137.393C142.916 320.651 147.393 316.174 147.393 310.651C147.393 305.128 142.916 300.651 137.393 300.651H97.725V254.02C102.327 254.961 107.189 255.43 112.475 255.43C133.442 255.43 144.311 248.183 153.901 241.79C162.516 236.046 169.321 231.509 184.232 231.509C199.145 231.509 205.95 236.046 214.565 241.79C224.155 248.183 235.024 255.43 255.992 255.43C276.96 255.43 287.83 248.183 297.42 241.79C306.036 236.046 312.841 231.509 327.754 231.509C342.668 231.509 349.474 236.046 358.09 241.79C367.681 248.184 378.551 255.43 399.52 255.43C404.808 255.43 409.672 254.96 414.275 254.019V300.652H217.129C211.606 300.652 207.129 305.129 207.129 310.652C207.129 316.175 211.606 320.652 217.129 320.652H451.352C456.83 320.652 461.286 325.109 461.286 330.586V365.045Z" fill="#444444"/>
<path d="M97.5305 456.539C97.4005 455.899 97.2105 455.269 96.9605 454.669C96.7105 454.069 96.4005 453.489 96.0405 452.939C95.6705 452.399 95.2605 451.889 94.7905 451.419C94.3305 450.959 93.8205 450.549 93.2705 450.179C92.7305 449.819 92.1505 449.509 91.5505 449.259C90.9505 449.009 90.3205 448.819 89.6805 448.689C86.4305 448.039 82.9805 449.099 80.6505 451.419C80.1905 451.889 79.7705 452.399 79.4105 452.939C79.0505 453.489 78.7405 454.069 78.4905 454.669C78.2405 455.269 78.0505 455.899 77.9205 456.539C77.7905 457.189 77.7305 457.839 77.7305 458.499C77.7305 459.149 77.7905 459.799 77.9205 460.449C78.0505 461.089 78.2405 461.719 78.4905 462.319C78.7405 462.919 79.0505 463.499 79.4105 464.049C79.7705 464.589 80.1905 465.099 80.6505 465.569C82.5105 467.429 85.0905 468.499 87.7305 468.499C88.3805 468.499 89.0305 468.429 89.6805 468.299C90.3205 468.169 90.9505 467.979 91.5505 467.729C92.1505 467.479 92.7305 467.169 93.2705 466.809C93.8205 466.439 94.3305 466.029 94.7905 465.569C95.2605 465.099 95.6705 464.589 96.0405 464.049C96.4005 463.499 96.7105 462.919 96.9605 462.319C97.2105 461.719 97.4005 461.089 97.5305 460.449C97.6605 459.799 97.7305 459.149 97.7305 458.499C97.7305 457.839 97.6605 457.19 97.5305 456.539Z" fill="#FBB8C8"/>
<path d="M205.01 426.639C204.88 425.999 204.69 425.369 204.44 424.769C204.19 424.169 203.88 423.589 203.52 423.039C203.15 422.499 202.73 421.979 202.27 421.519C201.81 421.059 201.3 420.639 200.75 420.279C200.21 419.919 199.63 419.609 199.03 419.359C198.42 419.109 197.79 418.919 197.16 418.789C195.87 418.529 194.54 418.529 193.25 418.789C192.61 418.919 191.98 419.109 191.38 419.359C190.77 419.609 190.19 419.919 189.65 420.279C189.1 420.639 188.59 421.059 188.13 421.519C187.67 421.979 187.25 422.499 186.89 423.039C186.53 423.589 186.22 424.169 185.97 424.769C185.72 425.369 185.53 425.999 185.4 426.639C185.27 427.289 185.2 427.939 185.2 428.589C185.2 429.249 185.27 429.899 185.4 430.549C185.53 431.189 185.72 431.819 185.97 432.419C186.22 433.019 186.53 433.599 186.89 434.149C187.25 434.689 187.67 435.209 188.13 435.669C188.59 436.129 189.1 436.539 189.65 436.909C190.19 437.269 190.77 437.579 191.38 437.829C191.98 438.079 192.61 438.269 193.25 438.399C193.89 438.529 194.55 438.599 195.2 438.599C195.85 438.599 196.51 438.529 197.16 438.399C197.79 438.269 198.42 438.079 199.03 437.829C199.63 437.579 200.21 437.269 200.75 436.909C201.3 436.539 201.81 436.129 202.27 435.669C202.73 435.209 203.15 434.689 203.52 434.149C203.88 433.599 204.19 433.019 204.44 432.419C204.69 431.819 204.88 431.189 205.01 430.549C205.14 429.899 205.2 429.249 205.2 428.589C205.2 427.939 205.14 427.289 205.01 426.639Z" fill="#FBB8C8"/>
<path d="M320.62 456.539C320.49 455.899 320.3 455.269 320.05 454.669C319.8 454.069 319.49 453.489 319.13 452.939C318.77 452.399 318.35 451.889 317.89 451.419C317.43 450.959 316.92 450.549 316.37 450.179C315.83 449.819 315.25 449.509 314.64 449.259C314.04 449.009 313.41 448.819 312.77 448.689C311.48 448.429 310.15 448.429 308.86 448.689C308.23 448.819 307.6 449.009 306.99 449.259C306.39 449.509 305.81 449.819 305.27 450.179C304.72 450.549 304.21 450.959 303.75 451.419C303.29 451.889 302.87 452.399 302.5 452.939C302.14 453.489 301.83 454.069 301.58 454.669C301.33 455.269 301.14 455.899 301.01 456.539C300.88 457.189 300.82 457.839 300.82 458.499C300.82 459.149 300.88 459.799 301.01 460.449C301.14 461.089 301.33 461.719 301.58 462.319C301.83 462.919 302.14 463.499 302.5 464.049C302.87 464.589 303.29 465.109 303.75 465.569C304.21 466.029 304.72 466.449 305.27 466.809C305.81 467.169 306.39 467.479 306.99 467.729C307.6 467.979 308.23 468.169 308.86 468.299C309.51 468.429 310.17 468.499 310.82 468.499C313.45 468.499 316.03 467.429 317.89 465.569C318.35 465.109 318.77 464.589 319.13 464.049C319.49 463.499 319.8 462.919 320.05 462.319C320.3 461.719 320.49 461.089 320.62 460.449C320.75 459.799 320.82 459.149 320.82 458.499C320.82 457.839 320.75 457.189 320.62 456.539Z" fill="#FBB8C8"/>
<path d="M434.08 432.62C433.95 431.98 433.76 431.35 433.51 430.75C433.26 430.15 432.95 429.56 432.59 429.02C432.23 428.48 431.81 427.96 431.35 427.5C429.48 425.64 426.91 424.57 424.28 424.57C421.64 424.57 419.07 425.64 417.2 427.5C416.74 427.96 416.33 428.48 415.96 429.02C415.6 429.56 415.29 430.15 415.04 430.75C414.79 431.35 414.6 431.98 414.47 432.62C414.34 433.26 414.28 433.92 414.28 434.57C414.28 435.23 414.34 435.88 414.47 436.53C414.6 437.17 414.79 437.8 415.04 438.4C415.29 439 415.6 439.58 415.96 440.12C416.33 440.67 416.74 441.18 417.2 441.65C417.67 442.11 418.18 442.52 418.72 442.89C419.27 443.25 419.85 443.56 420.45 443.81C421.05 444.06 421.68 444.25 422.32 444.38C422.97 444.51 423.62 444.57 424.28 444.57C426.91 444.57 429.49 443.51 431.35 441.65C431.81 441.18 432.23 440.67 432.59 440.12C432.95 439.58 433.26 439 433.51 438.4C433.76 437.79 433.95 437.17 434.08 436.53C434.21 435.88 434.28 435.23 434.28 434.57C434.28 433.919 434.21 433.26 434.08 432.62Z" fill="#FBB8C8"/>
<path d="M334.58 269.159C334.45 268.529 334.26 267.899 334.01 267.289C333.76 266.689 333.45 266.109 333.09 265.569C332.72 265.019 332.3 264.509 331.84 264.049C331.38 263.579 330.87 263.169 330.32 262.799C329.78 262.439 329.2 262.129 328.6 261.879C327.99 261.629 327.36 261.439 326.73 261.309C325.44 261.049 324.11 261.049 322.82 261.309C322.18 261.439 321.55 261.629 320.95 261.879C320.34 262.129 319.76 262.439 319.22 262.799C318.67 263.169 318.16 263.579 317.7 264.049C317.24 264.509 316.82 265.019 316.46 265.569C316.1 266.109 315.79 266.689 315.54 267.289C315.29 267.899 315.1 268.529 314.97 269.159C314.84 269.809 314.77 270.469 314.77 271.119C314.77 271.769 314.84 272.429 314.97 273.069C315.1 273.709 315.29 274.339 315.54 274.939C315.79 275.539 316.1 276.129 316.46 276.669C316.82 277.219 317.24 277.729 317.7 278.189C318.16 278.649 318.67 279.069 319.22 279.429C319.76 279.789 320.34 280.099 320.95 280.349C321.55 280.599 322.18 280.789 322.82 280.919C323.46 281.049 324.12 281.119 324.77 281.119C325.42 281.119 326.08 281.049 326.73 280.919C327.36 280.789 327.99 280.599 328.6 280.349C329.2 280.099 329.78 279.789 330.32 279.429C330.87 279.069 331.38 278.649 331.84 278.189C332.3 277.729 332.72 277.219 333.09 276.669C333.45 276.129 333.76 275.539 334.01 274.939C334.26 274.339 334.45 273.709 334.58 273.069C334.71 272.429 334.77 271.769 334.77 271.119C334.77 270.469 334.71 269.809 334.58 269.159Z" fill="#FBB8C8"/>
<path d="M204.01 255.54C203.88 254.9 203.69 254.27 203.44 253.67C203.19 253.07 202.88 252.49 202.52 251.94C202.16 251.4 201.74 250.88 201.28 250.42C200.82 249.96 200.3 249.54 199.76 249.18C199.21 248.82 198.63 248.51 198.03 248.26C197.43 248.01 196.8 247.82 196.16 247.69C194.87 247.43 193.54 247.43 192.25 247.69C191.61 247.82 190.98 248.01 190.38 248.26C189.78 248.51 189.2 248.82 188.65 249.18C188.11 249.54 187.6 249.96 187.13 250.42C186.67 250.88 186.26 251.4 185.89 251.94C185.53 252.49 185.22 253.07 184.97 253.67C184.72 254.27 184.53 254.9 184.4 255.54C184.27 256.19 184.21 256.84 184.21 257.5C184.21 258.15 184.27 258.8 184.4 259.45C184.53 260.09 184.72 260.72 184.97 261.32C185.22 261.92 185.53 262.5 185.89 263.05C186.26 263.59 186.67 264.1 187.13 264.57C187.6 265.03 188.11 265.44 188.65 265.81C189.2 266.17 189.78 266.48 190.38 266.73C190.98 266.98 191.61 267.17 192.25 267.3C192.9 267.43 193.55 267.5 194.21 267.5C194.86 267.5 195.52 267.43 196.16 267.3C196.8 267.17 197.43 266.98 198.03 266.73C198.63 266.48 199.21 266.17 199.76 265.81C200.3 265.44 200.82 265.03 201.28 264.57C201.74 264.1 202.15 263.59 202.52 263.05C202.88 262.5 203.19 261.92 203.44 261.32C203.69 260.72 203.88 260.09 204.01 259.45C204.14 258.8 204.2 258.15 204.2 257.5C204.2 256.839 204.14 256.189 204.01 255.54Z" fill="#FBB8C8"/>
</svg>
