<svg width="512" height="512" viewBox="0 0 512 512" fill="none" xmlns="http://www.w3.org/2000/svg">
<g clip-path="url(#clip0)">
<path d="M439.475 134.968C435.958 132.998 431.617 133.12 428.178 135.257L356.175 180.269V144.707C356.175 138.563 351.2 133.576 345.045 133.576H332.668C347.148 119.418 356.175 99.7064 356.175 77.913C356.175 34.9496 321.214 0 278.262 0C249.902 0 225.114 15.2821 211.48 37.9882C197.845 15.2821 173.057 0 144.697 0C101.733 0 66.7839 34.9496 66.7839 77.913C66.7839 99.7064 75.8107 119.418 90.2802 133.576H77.9143C71.7703 133.576 66.7839 138.563 66.7839 144.707V322.783C66.7839 328.927 71.7703 333.913 77.9143 333.913H155.827V385.67L69.2215 493.924C65.3815 498.721 66.1606 505.734 70.9578 509.562C75.7439 513.391 82.7672 512.634 86.5961 507.826L172.3 400.696H200.349V500.87C200.349 507.014 205.336 512 211.48 512C217.624 512 222.61 507.014 222.61 500.87V400.696H250.659L336.352 507.826C338.556 510.575 341.784 512 345.056 512C347.493 512 349.942 511.199 352.001 509.562C356.798 505.722 357.578 498.721 353.738 493.924L267.132 385.67V333.913H345.045C351.2 333.913 356.175 328.927 356.175 322.783V287.243L428.189 332.232C429.992 333.345 432.029 333.913 434.088 333.913C435.947 333.913 437.806 333.446 439.475 332.522C443.026 330.552 445.219 326.823 445.219 322.783V144.707C445.219 140.666 443.026 136.938 439.475 134.968ZM278.262 22.2609C308.949 22.2609 333.914 47.2264 333.914 77.913C333.914 108.6 308.949 133.565 278.262 133.565C247.576 133.565 222.61 108.6 222.61 77.913C222.61 47.2264 247.576 22.2609 278.262 22.2609ZM89.0448 77.913C89.0448 47.2264 114.01 22.2609 144.697 22.2609C175.384 22.2609 200.349 47.2264 200.349 77.913C200.349 108.6 175.384 133.565 144.697 133.565C114.01 133.565 89.0448 108.6 89.0448 77.913ZM244.871 378.435H178.088V333.913H244.871V378.435ZM333.914 200.348V267.153V311.652H256.001H166.958H89.0448V155.837H144.697C144.719 155.837 144.741 155.826 144.764 155.826C173.091 155.804 197.856 140.533 211.48 117.838C225.103 140.533 249.857 155.793 278.195 155.826C278.218 155.826 278.24 155.837 278.262 155.837H333.914V200.348ZM422.958 302.703L356.175 260.986V206.514L422.958 164.786V302.703Z" fill="#444444"/>
<path d="M207 159L271.952 271.5H142.048L207 159Z" fill="#FBB8C8"/>
</g>
<defs>
<clipPath id="clip0">
<rect width="512" height="512" fill="white"/>
</clipPath>
</defs>
</svg>
