<svg width="512" height="512" viewBox="0 0 512 512" fill="none" xmlns="http://www.w3.org/2000/svg">
<path d="M503.916 404.219H490.297C489.561 382.551 485.875 361.221 479.308 340.713C472.162 318.4 461.706 297.328 448.222 278.055C434.921 259.04 418.913 242.129 400.643 227.793C382.211 213.316 361.818 201.74 340.034 193.375C315.887 184.099 290.539 178.961 264.561 178.033L288.507 154.084C299.044 143.546 299.044 126.399 288.506 115.86C283.403 110.758 276.617 107.947 269.398 107.947C264.623 107.947 260.038 109.177 256.003 111.485C251.968 109.177 247.382 107.947 242.608 107.947C235.391 107.947 228.604 110.757 223.499 115.859C218.393 120.964 215.58 127.752 215.58 134.973C215.58 142.194 218.393 148.981 223.498 154.085L247.447 178.034C230.763 178.634 214.22 180.976 198.151 185.055C179.891 189.69 162.204 196.545 145.572 205.449C141.638 207.551 140.15 212.455 142.252 216.39C143.664 219.031 146.402 220.658 149.388 220.658C150.714 220.658 152.029 220.335 153.204 219.71C168.693 211.42 185.153 205.039 202.14 200.728C219.226 196.39 236.919 194.156 254.727 194.044C255.143 194.11 255.567 194.154 256.002 194.154C256.449 194.154 256.884 194.109 257.31 194.038C283.822 194.203 309.696 199.05 334.235 208.466C354.52 216.26 373.502 227.039 390.673 240.512C407.672 253.867 422.579 269.615 434.965 287.314C447.522 305.25 457.266 324.878 463.916 345.65C469.977 364.574 473.397 384.235 474.125 404.219H37.891C38.438 389.232 40.489 374.366 44.053 359.921C48.128 343.364 54.175 327.282 62.022 312.126C69.729 297.23 79.182 283.207 90.123 270.423C101.01 257.704 113.373 246.224 126.858 236.307C130.448 233.666 131.223 228.601 128.583 225.011C127.073 222.942 124.627 221.712 122.073 221.712C120.337 221.712 118.677 222.251 117.287 223.286C102.811 233.925 89.542 246.246 77.846 259.903C66.097 273.624 55.932 288.704 47.655 304.7C39.225 320.987 32.736 338.265 28.35 356.05C24.483 371.756 22.265 387.925 21.71 404.218H8.084C3.619 404.218 0 407.837 0 412.302C0 434.59 18.133 452.723 40.421 452.723H471.579C493.867 452.723 512 434.59 512 412.302C512 407.838 508.381 404.219 503.916 404.219ZM256.004 163.724L234.93 142.649C232.876 140.599 231.747 137.872 231.747 134.971C231.747 132.07 232.877 129.344 234.928 127.293C236.979 125.243 239.706 124.114 242.607 124.114C245.509 124.114 248.237 125.244 250.289 127.294C253.447 130.449 258.563 130.449 261.718 127.293C263.77 125.242 266.496 124.114 269.398 124.114C272.299 124.114 275.025 125.242 277.074 127.291C281.308 131.526 281.308 138.416 277.074 142.651L256.004 163.724ZM471.579 436.555H40.421C29.882 436.555 20.896 429.796 17.559 420.387H29.58C29.601 420.387 29.621 420.39 29.642 420.39C29.663 420.39 29.683 420.387 29.704 420.387H482.296C482.317 420.387 482.337 420.39 482.358 420.39C482.379 420.39 482.399 420.387 482.42 420.387H494.441C491.103 429.797 482.118 436.555 471.579 436.555Z" fill="#444444"/>
<path d="M46.1362 137.101C19.2212 110.186 45.7562 73.7392 46.8982 72.2012C49.5642 68.6302 48.8372 63.5742 45.2702 60.8982C41.6982 58.2202 36.6312 58.9432 33.9522 62.5152C33.5842 63.0062 24.8922 74.7142 20.4942 90.8382C14.3982 113.192 19.3112 133.142 34.7032 148.535C61.6192 175.449 35.0842 211.898 33.9532 213.421C31.2742 216.993 31.9982 222.06 35.5702 224.739C37.0242 225.829 38.7262 226.357 40.4142 226.356C42.8722 226.356 45.3002 225.24 46.8882 223.122C47.2562 222.631 55.9492 210.923 60.3462 194.798C66.4422 172.444 61.5292 152.494 46.1362 137.101Z" fill="#FBB8C8"/>
<path d="M132.367 104.759C125.8 98.1929 123.749 91.3439 126.097 83.8229C128.056 77.5449 132.358 73.0879 132.367 73.0779C135.524 69.9199 135.524 64.8019 132.367 61.6439C129.21 58.4879 124.091 58.4879 120.934 61.6439C120.244 62.3339 114.102 68.6609 110.897 78.2779C106.403 91.7609 109.968 105.226 120.934 116.193C127.51 122.767 129.558 129.667 127.198 137.287C125.253 143.567 121.017 148.063 120.87 148.218C117.763 151.398 117.805 156.494 120.972 159.621C122.548 161.177 124.6 161.952 126.651 161.952C128.737 161.952 130.823 161.149 132.404 159.548C133.092 158.851 139.215 152.464 142.411 142.793C146.895 129.227 143.328 115.719 132.367 104.759Z" fill="#FBB8C8"/>
<path d="M477.296 148.534C492.688 133.141 497.601 113.191 491.504 90.8372C487.107 74.7132 478.414 63.0042 478.046 62.5142C475.372 58.9472 470.321 58.2252 466.748 60.8942C463.176 63.5602 462.442 68.6222 465.101 72.2002C466.243 73.7382 492.778 110.185 465.862 137.1C450.471 152.493 445.557 172.444 451.654 194.798C456.051 210.923 464.744 222.632 465.112 223.122C466.698 225.238 469.12 226.351 471.575 226.351C473.258 226.351 474.956 225.827 476.409 224.741C479.982 222.075 480.716 217.013 478.057 213.435C476.915 211.897 450.38 175.449 477.296 148.534Z" fill="#FBB8C8"/>
<path d="M384.799 137.287C382.438 129.667 384.488 122.767 391.062 116.193C402.029 105.227 405.595 91.761 401.1 78.278C397.894 68.661 391.752 62.335 391.062 61.644C387.919 58.501 382.846 58.502 379.682 61.628C376.52 64.752 376.491 69.862 379.596 73.044C379.639 73.088 383.94 77.545 385.9 83.823C388.246 91.344 386.197 98.193 379.631 104.759C368.671 115.72 365.103 129.227 369.587 142.793C372.783 152.464 378.906 158.851 379.593 159.548C381.17 161.145 383.245 161.943 385.32 161.943C387.358 161.943 389.399 161.175 390.975 159.637C394.157 156.533 394.217 151.423 391.131 148.222C391.088 148.177 386.769 143.647 384.799 137.287Z" fill="#FBB8C8"/>
</svg>
