<svg width="496" height="496" viewBox="0 0 496 496" fill="none" xmlns="http://www.w3.org/2000/svg">
<g clip-path="url(#clip0)">
<path d="M487.999 320.005H479.999V232.007C479.999 227.581 476.417 224.007 471.999 224.007H427.312L267.316 64.0104L293.659 37.6672C296.788 34.5383 296.788 29.4799 293.659 26.3549L269.659 2.35542C266.531 -0.773421 261.476 -0.773421 258.347 2.35542L36.6955 224.007H24.0083C19.5943 224.007 16.0085 227.581 16.0085 232.007V320.005H8.00862C3.59465 320.005 0.00878906 323.579 0.00878906 328.005V376.004C0.00878906 380.426 3.59465 384.004 8.00862 384.004H16.5631L24.0317 488.568C24.3286 492.759 27.8168 496.001 32.0081 496.001H64.0075C68.1988 496.001 71.687 492.759 71.9917 488.568L79.4563 384.004H416.555L424.023 488.568C424.32 492.759 427.808 496.001 432 496.001H463.999C468.19 496.001 471.679 492.759 471.983 488.568L479.448 384.004H487.999C492.416 384.004 495.998 380.426 495.998 376.004V328.005C495.998 323.579 492.416 320.005 487.999 320.005V320.005ZM404.688 224.007H320.002V208.007C320.002 205.879 319.162 203.847 317.658 202.351L293.659 178.352C292.163 176.848 290.124 176.008 288.003 176.008H184.005C179.591 176.008 176.005 179.582 176.005 184.008V224.007H107.319L256.003 75.3226L404.688 224.007ZM192.005 256.006V192.008H240.004V256.006H192.005ZM256.003 192.008H284.69L304.002 211.32V256.006H256.003V192.008ZM264.003 19.3238L276.69 32.011L84.6945 224.007H59.32L264.003 19.3238ZM32.0081 240.007H176.005V264.006C176.005 268.428 179.591 272.006 184.005 272.006H312.002C316.42 272.006 320.002 268.428 320.002 264.006V240.007H463.999V320.005H447.999V296.006C447.999 291.58 444.417 288.006 440 288.006H56.0076C51.5936 288.006 48.0078 291.58 48.0078 296.006V320.005H32.0081V240.007ZM64.0075 320.005V304.005H96.0068V320.005H64.0075ZM112.006 304.005H128.006V320.005H112.006V304.005ZM144.006 304.005H160.005V320.005H144.006V304.005ZM176.005 304.005H192.005V320.005H176.005V304.005ZM208.004 304.005H224.004V320.005H208.004V304.005ZM240.004 304.005H256.003V320.005H240.004V304.005ZM272.003 304.005H288.003V320.005H272.003V304.005ZM304.002 304.005H320.002V320.005H304.002V304.005ZM336.002 304.005H352.001V320.005H336.002V304.005ZM368.001 304.005H384.001V320.005H368.001V304.005ZM400 304.005H432V320.005H400V304.005ZM39.4572 480.002L38.3127 464.002H57.6951L56.5545 480.002H39.4572ZM58.8396 448.002H37.176L32.6097 384.004H63.4254L58.8396 448.002ZM439.449 480.002L438.304 464.002H457.687L456.546 480.002H439.449ZM458.839 448.002H437.168L432.601 384.004H463.417L458.839 448.002ZM479.999 368.004H16.0085V336.005H479.999V368.004Z" fill="#444444"/>
<path d="M368.001 120.009C381.236 120.009 392.001 109.24 392.001 96.0097V37.5539L440 19.5542V57.4792C437.488 56.5847 434.816 56.0105 432 56.0105C418.77 56.0105 408.001 66.7759 408.001 80.01C408.001 93.2402 418.77 104.01 432 104.01C445.234 104.01 456 93.2402 456 80.01V8.01151C456 5.38657 454.714 2.92959 452.562 1.43352C450.394 -0.0625399 447.656 -0.406283 445.191 0.523386L381.193 24.5229C378.075 25.6908 376.001 28.6751 376.001 32.011V73.4789C373.49 72.5844 370.818 72.0102 368.001 72.0102C354.771 72.0102 344.002 82.7756 344.002 96.0097C344.002 109.24 354.771 120.009 368.001 120.009ZM432 88.0098C427.594 88.0098 424 84.424 424 80.01C424 75.5921 427.594 72.0102 432 72.0102C436.41 72.0102 440 75.5921 440 80.01C440 84.424 436.41 88.0098 432 88.0098ZM368.001 88.0098C372.412 88.0098 376.001 91.5918 376.001 96.0097C376.001 100.424 372.412 104.01 368.001 104.01C363.595 104.01 360.002 100.424 360.002 96.0097C360.002 91.5918 363.595 88.0098 368.001 88.0098Z" fill="#FBB8C8"/>
<path d="M40.0083 120.009C53.2424 120.009 64.0078 109.24 64.0078 96.0096V27.3235L90.351 53.6667L101.663 42.3545L61.6641 2.35529C59.3673 0.0584676 55.9298 -0.636831 52.9455 0.61705C49.9612 1.8514 48.0081 4.77712 48.0081 8.01143V73.4788C45.4965 72.5843 42.8246 72.0101 40.0083 72.0101C26.7781 72.0101 16.0088 82.7755 16.0088 96.0096C16.0088 109.24 26.7781 120.009 40.0083 120.009ZM40.0083 88.0098C44.4184 88.0098 48.0081 91.5917 48.0081 96.0096C48.0081 100.424 44.4184 104.009 40.0083 104.009C35.6021 104.009 32.0085 100.424 32.0085 96.0096C32.0085 91.5917 35.6021 88.0098 40.0083 88.0098Z" fill="#FBB8C8"/>
<path d="M8.00879 136.009H40.0088V152.009H8.00879V136.009Z" fill="#FBB8C8"/>
<path d="M88.0068 80.0103H104.007V112.01H88.0068V80.0103Z" fill="#FBB8C8"/>
<path d="M112.007 16.0112H144.007V32.0112H112.007V16.0112Z" fill="#FBB8C8"/>
<path d="M328.002 8.01172H344.002V40.0117H328.002V8.01172Z" fill="#FBB8C8"/>
<path d="M424 120.009H456V136.009H424V120.009Z" fill="#FBB8C8"/>
<path d="M479.999 72.0103H495.999V104.01H479.999V72.0103Z" fill="#FBB8C8"/>
<path d="M394.345 157.669L405.657 146.353L429.657 170.356L418.345 181.669L394.345 157.669Z" fill="#FBB8C8"/>
</g>
<defs>
<clipPath id="clip0">
<rect width="496" height="496" fill="white"/>
</clipPath>
</defs>
</svg>
